<svg xmlns="http://www.w3.org/2000/svg" viewBox="0 0 191.26 90.31"><defs><style>.cls-1{fill:#ea002c;}.cls-2{fill:#ff7a00;}</style></defs><g id="Layer_2" data-name="Layer 2"><g id="Layer_1-2" data-name="Layer 1"><path class="cls-1" d="M17,66.28c-3.21-1.5-5.84-2.72-5.84-5.17,0-1.87,1.5-3.24,4.46-3.24a15.2,15.2,0,0,1,2.9.3,9.27,9.27,0,0,0,1.43.15c2.59,0,4-1.54,5-4.47l.4-1.19a27,27,0,0,0-10.16-2c-8.77,0-13.41,5.62-13.4,11.46a9.89,9.89,0,0,0,2.36,6.76,21.36,21.36,0,0,0,7,4.79C14.76,75.41,18,76.73,18,79.35,18,81.68,15.61,83,12.39,83a17.47,17.47,0,0,1-8.76-2.83L0,87a25,25,0,0,0,13,3.33c8.18,0,14.38-4.7,14.38-11.93S21.64,68.54,17,66.28Z"/><path class="cls-1" d="M49,69.63,63.86,51.42H53.28L41.43,67.14h-.18V51.42H32.53V90h.52c3.77,0,8.26-1.75,8.26-8V73.1h.18L53.56,89.52h11.1L49,69.63Z"/><path class="cls-1" d="M64.35,10.11c-3.07.57-7.62,3.36-7.61,8.29,0,4.48,3.68,7.19,3.69,13.06a10.4,10.4,0,0,1-5,9c1.06-.1,2.23-.16,3.51-.16a30.52,30.52,0,0,1,4.41.26l13.77-16.9A56.86,56.86,0,0,0,64.35,10.11Z"/><path class="cls-1" d="M75.93,55.75c1.73-2.69,1.95-7,2.1-11.38.16-4.09,1-7.16,6.48-7.18,1.21,0,2.37.16,4.46.15a32.18,32.18,0,0,0,16.49-4.6,57.2,57.2,0,0,0-28.39-9c-.78,2.21-6.88,19.17-7.34,20.54a22.2,22.2,0,0,1,2.47,3.62,39.85,39.85,0,0,1,3.73,7.9Z"/><path class="cls-2" d="M46.83,41.9c-.7,0-1-.46-1.14-1.26s-3.53-32.32-4-37.09c-.07-.7-.24-2-.25-2.43a1,1,0,0,1,1-1.12c1.64,0,10.53,2.08,20,8.7-2.72.76-7.65,3.59-7.63,9.45,0,5.18,3.74,8,3.76,13.24,0,8.46-9.7,10.51-11.71,10.51Z"/><path class="cls-2" d="M76.72,58a6.14,6.14,0,0,0,.42,1,.93.93,0,0,0,.85.53,1.94,1.94,0,0,0,.79-.21c.73-.33,29.5-13.72,33.83-15.72.63-.31,1.82-.84,2.22-1.07a1.06,1.06,0,0,0,.59-.91,1.17,1.17,0,0,0-.16-.57c-.55-.88-3.33-3.83-8-7.06-3.7,2-9.47,5.18-18,5.22-2.11,0-2.58-.15-4-.14-4.2,0-5.24,1.81-5.4,5.48,0,.7,0,1.63-.07,2.65-.14,3.29-.52,7.82-3,10.84Z"/><path class="cls-2" d="M183.7,62.31V59.06H163.89v3.25h6l-7,18.4h4.81l6.2-16.47,5.52,15.13a2.14,2.14,0,0,0,1.9,1.34h3.47l-7.19-18.4Z"/><path class="cls-2" d="M186.6,59.06V89.5h1.24a3.41,3.41,0,0,0,3.42-3.41v-27Z"/><path class="cls-2" d="M152.75,59.06V67H141.91v3.25h10.84V89.5H154a3.42,3.42,0,0,0,3.42-3.41v-27Z"/><path class="cls-2" d="M134.81,59.06h-4.66V76.82a3.43,3.43,0,0,0,3.43,3.42h16.31V77H134.81Z"/><path class="cls-2" d="M118.79,59.06V89.5H120a3.42,3.42,0,0,0,3.42-3.41v-27Z"/><path class="cls-2" d="M112.26,68.17h-2c-.45-5.4-3.21-9.55-7.91-9.55-5.17,0-8,5-8,11.18S97.14,81,102.31,81c4.7,0,7.46-4.15,7.91-9.56h2V89.5h1.24a3.42,3.42,0,0,0,3.42-3.41v-27h-4.66Zm-10,9.57c-2.19,0-3.3-3.56-3.3-7.94s1.11-7.93,3.3-7.93,3.3,3.55,3.3,7.93S104.5,77.74,102.31,77.74Z"/></g></g></svg>